# xmcd CD database file
#
# Track frame offsets:
#	150
#	13123
#	26836
#	39237
#	52852
#	66662
#	80453
#	93816
#	106452
#	123618
#	135814
#	158968
#	171473
#	187860
#	200155
#	212664
#
# Disc length: 3029 seconds
#
# Revision: 0
# Processed by: cddbd v1.5.2PL0 Copyright (c) Steve Scherf et al.
# Submitted via: CDex 1.51
#
DISCID=da0bd310
DTITLE=Various Artist - Summertime Blues
DYEAR=2002
DGENRE=Blues
TTITLE0=Summertime - Billie Holiday
TTITLE1=How Long Blues - Jimmy Witherspoon
TTITLE2=Rockin' Chair Blues - Ray Charles
TTITLE3=Weary Blues - Sidney Bechet
TTITLE4=My Heart Belongs To Daddy - Ella Fitzgerald
TTITLE5=Let The Sun Shine - Charles Brown
TTITLE6=Heart Trouble Blues - John Lee Hooker
TTITLE7=I'm Wild About That Thinh - Bessie Smith
TTITLE8=Barrelhouse Blues - Johnny Otis
TTITLE9=Black, White And Brown - Big Bill Broonzy
TTITLE10=Rockin' The Blues - Howlin' Wolf
TTITLE11=Little Low Woman Blues - 'Sonny Boy' Williamson
TTITLE12=Just Let Me Be - Memphis Slim
TTITLE13=Shim Sham Shimmy - Champion Jack Dupree
TTITLE14=Sun Risin' Blues - Big Joe Turner
TTITLE15=Down By The Riverside - Sonny Terry and Brownie McGhee
EXTD=YEAR: 2002
EXTT0=
EXTT1=
EXTT2=
EXTT3=
EXTT4=
EXTT5=
EXTT6=
EXTT7=
EXTT8=
EXTT9=
EXTT10=
EXTT11=
EXTT12=
EXTT13=
EXTT14=
EXTT15=
PLAYORDER=
